<?xml version="1.0" encoding="UTF-8"?>
<svg xmlns="http://www.w3.org/2000/svg" xmlns:xlink="http://www.w3.org/1999/xlink" width="16px" height="16px" viewBox="0 0 16 16" version="1.1">
    
    <title>noun_Right Up Arrow_108617@2x</title>
    <desc>Created with Sketch.</desc>
    <g id="Page-1" stroke="none" stroke-width="1" fill="none" fill-rule="evenodd">
        <g id="redeem-nonotch-mobile-copy-6" transform="translate(-261.000000, -317.000000)" fill="#000000" fill-rule="nonzero" stroke="#676869">
            <g id="Group" transform="translate(13.000000, 40.000000)">
                <g id="Group-4" transform="translate(22.000000, 252.000000)">
                    <g id="noun_Right-Up-Arrow_108617" transform="translate(227.000000, 26.000000)">
                        <path d="M14,0.17369727 C14,0.104218362 13.9480841,0.0347394541 13.8961681,0.017369727 C13.8961681,0.017369727 13.8961681,0.017369727 13.8961681,0.017369727 C13.8788628,0.017369727 13.8615575,0 13.8269468,0 L0.242274413,0 C0.138442522,0 0.0692212608,0.0694789082 0.0692212608,0.17369727 C0.0692212608,0.277915633 0.138442522,0.347394541 0.242274413,0.347394541 L13.4116193,0.347394541 L0.0519159456,13.6526055 C-0.0173053152,13.7220844 -0.0173053152,13.8263027 0.0519159456,13.8957816 C0.086526576,13.9305211 0.138442522,13.9478908 0.173053152,13.9478908 C0.224969098,13.9478908 0.259579728,13.9305211 0.294190358,13.8957816 L13.6538937,0.59057072 L13.6538937,13.8263027 C13.6538937,13.9305211 13.723115,14 13.8269468,14 C13.9307787,14 14,13.9305211 14,13.8263027 L14,0.17369727 C14,0.17369727 14,0.17369727 14,0.17369727 Z" id="Path"/>
                    </g>
                </g>
            </g>
        </g>
    </g>
</svg>
