 
<?xml version="1.0"?>
<svg xmlns="http://www.w3.org/2000/svg" width="15" height="15.625" viewBox="0 0 15 15.625">
  <g id="shop_1_" transform="translate(0 0)">
    <path id="Shape" d="M12.752,15.625H2.263a.766.766,0,0,1-.749-.781V9.375h1.5V12.5H12V9.375h1.5v5.468A.767.767,0,0,1,12.752,15.625Zm.374-7.031A1.917,1.917,0,0,1,11.254,6.64a1.875,1.875,0,1,1-3.746,0A1.918,1.918,0,0,1,5.634,8.594,1.917,1.917,0,0,1,3.761,6.64,1.917,1.917,0,0,1,1.888,8.594,1.917,1.917,0,0,1,.015,6.64H0l1.573-3.82a.745.745,0,0,1,.689-.477h10.49a.747.747,0,0,1,.644.391H13.4l.022.07a.041.041,0,0,1,.009.015.085.085,0,0,0,.006.017L15,6.64A1.917,1.917,0,0,1,13.127,8.594Zm-.374-7.032H2.263A.766.766,0,0,1,1.514.781.766.766,0,0,1,2.263,0h10.49a.767.767,0,0,1,.75.781A.767.767,0,0,1,12.752,1.562Z" fill="#3b4243"/>
  </g>
</svg>