<svg id="Layer_1" data-name="Layer 1" xmlns="http://www.w3.org/2000/svg" viewBox="0 0 352.17 137.08"><defs><style>.cls-1{fill:#363b41;}.cls-2{fill:#50c8f4;}.cls-3{fill:#21765f;}.cls-4{fill:#2b7695;}.cls-5{fill:#4fbe9a;}.cls-6{fill:#0d5f5e;}.cls-7{fill:#10a19d;}</style></defs><title>challengepoint</title><g id="logo"><path class="cls-1" d="M129.9,451c0-8.61,6.26-14.49,14.2-14.49a12.58,12.58,0,0,1,10.21,5l-2,1.3a10.18,10.18,0,0,0-8.19-4.07c-6.55,0-11.68,5-11.68,12.31s5.13,12.31,11.68,12.31a10.18,10.18,0,0,0,8.19-4.07l2.06,1.26a12.7,12.7,0,0,1-10.25,5C136.16,465.5,129.9,459.62,129.9,451Z" transform="translate(-129.9 -328.46)"/><path class="cls-1" d="M179.72,465V451.68H161.95V465h-2.39V437h2.39v12.52h17.77V437h2.39v28h-2.39Z" transform="translate(-129.9 -328.46)"/><path class="cls-1" d="M209.79,465L207,458.1H192.19L189.42,465h-2.77l11.47-28h3l11.47,28h-2.77Zm-10.17-25.46L193,455.92h13.23Z" transform="translate(-129.9 -328.46)"/><path class="cls-1" d="M216.5,465V437h2.44v25.83h13.57V465h-16Z" transform="translate(-129.9 -328.46)"/><path class="cls-1" d="M237.25,465V437h2.44v25.83h13.57V465h-16Z" transform="translate(-129.9 -328.46)"/><path class="cls-1" d="M258.59,465V437h17.77v2.18H261v10.38h15.08v2.18H261v11.09h15.38V465H258.59Z" transform="translate(-129.9 -328.46)"/><path class="cls-1" d="M302.73,465l-17.64-24.07V465H282.7V437h2.44l17.56,23.73V437h2.39v28h-2.35Z" transform="translate(-129.9 -328.46)"/><path class="cls-1" d="M311.42,451c0-8.65,6.3-14.49,14.2-14.49a13.31,13.31,0,0,1,10.54,4.79l-1.81,1.3a11.42,11.42,0,0,0-8.74-3.91c-6.55,0-11.68,5-11.68,12.31s5.13,12.35,11.68,12.35a11.83,11.83,0,0,0,8.23-3.4v-6.72H323.27v-2.14h13v9.79a14.14,14.14,0,0,1-10.63,4.66C317.72,465.54,311.42,459.66,311.42,451Z" transform="translate(-129.9 -328.46)"/><path class="cls-1" d="M342.76,465V437h17.77v2.18H345.15v10.38h15.08v2.18H345.15v11.09h15.38V465H342.76Z" transform="translate(-129.9 -328.46)"/><path class="cls-1" d="M366.86,465V437h10.5c5.38,0,8.44,3.78,8.44,8.19s-3.11,8.19-8.44,8.19h-8.11V465h-2.39Zm16.42-19.83a5.78,5.78,0,0,0-6.17-6h-7.86v12h7.86A5.8,5.8,0,0,0,383.29,445.17Z" transform="translate(-129.9 -328.46)"/><path class="cls-1" d="M390.22,451c0-8.19,5.38-14.49,13.61-14.49s13.61,6.3,13.61,14.49S412,465.5,403.83,465.5,390.22,459.2,390.22,451Zm24.7,0c0-7.1-4.37-12.31-11.09-12.31s-11.09,5.21-11.09,12.31,4.33,12.31,11.09,12.31S414.92,458.06,414.92,451Z" transform="translate(-129.9 -328.46)"/><path class="cls-1" d="M423.77,465V437h2.39v28h-2.39Z" transform="translate(-129.9 -328.46)"/><path class="cls-1" d="M453.6,465L436,440.92V465h-2.39V437H436l17.56,23.73V437h2.39v28H453.6Z" transform="translate(-129.9 -328.46)"/><path class="cls-1" d="M470.48,465V439.16h-9.16V437h20.75v2.18h-9.16V465h-2.44Z" transform="translate(-129.9 -328.46)"/><g id="arrows_color" data-name="arrows color"><polygon class="cls-2" points="221.1 0 221.1 0 203.1 18 203.1 72 221.1 90 221.1 0"/><polygon class="cls-3" points="149.1 18 149.1 72 176.1 45 149.1 18"/><polygon class="cls-4" points="176.1 45 203.1 72 203.1 18 176.1 45"/><polygon class="cls-5" points="131.1 0 131.1 90 131.1 90 149.1 72 149.1 18 131.1 0"/><polygon class="cls-2" points="203.1 90 203.1 72 185.1 54 176.1 63 203.1 90"/><polygon class="cls-2" points="203.1 0 203.1 0 176.1 27 185.1 36 203.1 18 203.1 0"/><polygon class="cls-6" points="176.1 45 167.1 36 158.1 45 167.1 54 176.1 45 176.1 45"/><polygon class="cls-5" points="149.1 0 149.1 18 167.1 36 176.1 27 149.1 0"/><polygon class="cls-5" points="149.1 72 149.1 90 149.1 90 176.1 63 167.1 54 149.1 72"/><polygon class="cls-6" points="176.1 45 185.1 54 194.1 45 185.1 36 176.1 45 176.1 45"/><rect class="cls-7" x="299.64" y="376.09" width="12.73" height="12.73" transform="translate(-310.71 -0.06) rotate(-45)"/><rect class="cls-7" x="299.64" y="358.09" width="12.73" height="12.73" transform="translate(-297.99 -5.34) rotate(-45)"/></g></g></svg>