<svg id="_2" data-name="2" xmlns="http://www.w3.org/2000/svg" viewBox="0 0 432.04 153.04"><defs><style>.cls-1{fill:#353a40;}.cls-2{fill:#4fc7f3;}.cls-3{fill:#2a7594;}.cls-4{fill:#784a9c;}.cls-5{fill:#0ca09c;}.cls-6{fill:#075f5e;}.cls-7{fill:#333087;}.cls-8{fill:#292d75;}.cls-9{fill:#20765e;}.cls-10{fill:#095e5e;}.cls-11{fill:#4e2976;}.cls-12{fill:#1b154a;}.cls-13{fill:#4ebd99;}</style></defs><title>GoalQuest_Logo_Final_RGB</title><path class="cls-1" d="M92.75,418.58c0-13.51,9.84-22.63,22.17-22.63a20.78,20.78,0,0,1,16.46,7.48l-2.82,2a17.83,17.83,0,0,0-13.64-6.1c-10.23,0-18.23,7.81-18.23,19.22s8,19.28,18.23,19.28a18.48,18.48,0,0,0,12.86-5.31V422.05H111.24v-3.35h20.27V434a22.08,22.08,0,0,1-16.59,7.28C102.59,441.27,92.75,432.09,92.75,418.58Z" transform="translate(-92.75 -289.15)"/><path class="cls-1" d="M145.94,418.58c0-12.79,8.4-22.63,21.25-22.63s21.25,9.84,21.25,22.63S180,441.2,167.2,441.2,145.94,431.37,145.94,418.58Zm38.57,0c0-11.09-6.82-19.22-17.32-19.22s-17.32,8.13-17.32,19.22,6.76,19.22,17.32,19.22S184.51,429.6,184.51,418.58Z" transform="translate(-92.75 -289.15)"/><path class="cls-1" d="M233.38,440.42l-4.33-10.76H205.9l-4.33,10.76h-4.33l17.91-43.75h4.66l17.91,43.75h-4.33Zm-15.87-39.75-10.36,25.58H227.8Z" transform="translate(-92.75 -289.15)"/><path class="cls-1" d="M249.78,440.42V396.67h3.8V437h21.19v3.41h-25Z" transform="translate(-92.75 -289.15)"/><path class="cls-1" d="M284.94,418.58c0-12.79,8.4-22.63,21.25-22.63s21.25,9.84,21.25,22.63A23.34,23.34,0,0,1,321.21,435l4.59,4.79-2.56,2.36-4.66-4.79a20.77,20.77,0,0,1-12.4,3.8C293.33,441.2,284.94,431.37,284.94,418.58Zm31.16,16.2-6.76-7,2.62-2.43,6.76,7.08a20.82,20.82,0,0,0,4.79-13.84c0-11.09-6.82-19.22-17.32-19.22s-17.32,8.13-17.32,19.22,6.76,19.22,17.32,19.22A17,17,0,0,0,316.09,434.78Z" transform="translate(-92.75 -289.15)"/><path class="cls-1" d="M343.25,423.63v-27h3.8v26.89c0,8.86,4.66,14.23,13.25,14.23s13.25-5.38,13.25-14.23V396.67h3.81v27c0,10.82-5.77,17.58-17.05,17.58S343.25,434.38,343.25,423.63Z" transform="translate(-92.75 -289.15)"/><path class="cls-1" d="M394.81,440.42V396.67h27.74v3.41h-24v16.2h23.55v3.41H398.55V437h24v3.41H394.81Z" transform="translate(-92.75 -289.15)"/><path class="cls-1" d="M435.94,434.25l2.43-2.82a18.08,18.08,0,0,0,13.71,6.36c8.92,0,11.48-5,11.48-8.72,0-12.86-26.24-6.17-26.24-21.45,0-7.15,6.43-11.68,14.36-11.68,6.49,0,11.48,2.3,14.82,6.17L464,404.87a15.67,15.67,0,0,0-12.53-5.51c-5.84,0-10.23,3.35-10.23,8.07,0,11.22,26.24,5.05,26.24,21.38,0,5.64-3.74,12.4-15.54,12.4C444.72,441.2,439.28,438.25,435.94,434.25Z" transform="translate(-92.75 -289.15)"/><path class="cls-1" d="M494,440.42V400.08h-14.3v-3.41h32.4v3.41h-14.3v40.34H494Z" transform="translate(-92.75 -289.15)"/><path class="cls-1" d="M519.87,406.68a4.91,4.91,0,1,1,4.91-4.91A4.92,4.92,0,0,1,519.87,406.68Zm0-8.83a3.92,3.92,0,1,0,3.92,3.92A3.92,3.92,0,0,0,519.87,397.85Z" transform="translate(-92.75 -289.15)"/><path class="cls-1" d="M519.6,401.37a0.9,0.9,0,0,0,.59-0.16,0.79,0.79,0,0,0,0-1,0.93,0.93,0,0,0-.59-0.15H519v1.32h0.56m-0.56.91v1.95h-1.33v-5.14h2a2.54,2.54,0,0,1,1.49.34,1.22,1.22,0,0,1,.47,1.08,1.36,1.36,0,0,1-.24.84,1.41,1.41,0,0,1-.74.48,1,1,0,0,1,.49.28,2.45,2.45,0,0,1,.43.66l0.72,1.46h-1.41l-0.63-1.28a1.38,1.38,0,0,0-.38-0.52,0.86,0.86,0,0,0-.52-0.14H519" transform="translate(-92.75 -289.15)"/><polygon class="cls-2" points="258.11 83.93 325.8 83.93 283.84 41.97 250 75.82 258.11 83.93"/><polygon class="cls-3" points="250 75.82 283.84 41.97 241.88 0.01 241.88 67.7 250 75.82"/><polygon class="cls-4" points="146.78 41.97 146.78 41.97 104.81 83.93 130.54 83.93 146.78 67.69 146.78 41.97"/><polygon class="cls-5" points="250 75.82 241.88 83.93 258.11 83.93 250 75.82"/><polygon class="cls-5" points="173.34 68.53 188.74 83.93 194.33 83.93 194.33 47.54 173.34 68.53"/><polygon class="cls-5" points="226.22 52.03 194.33 83.93 241.88 83.93 241.88 67.7 226.22 52.03"/><polygon class="cls-6" points="241.88 67.7 241.88 83.93 241.88 83.93 250 75.82 241.88 67.7"/><polygon class="cls-7" points="130.54 83.93 146.78 83.93 146.78 67.69 130.54 83.93"/><polygon class="cls-7" points="167.76 62.95 146.78 83.93 157.94 83.93 173.34 68.53 167.76 62.95"/><polygon class="cls-8" points="157.94 83.93 188.74 83.93 173.34 68.53 157.94 83.93"/><polygon class="cls-9" points="208.03 33.84 194.33 20.15 194.33 47.54 208.03 33.84"/><polygon class="cls-10" points="208.03 33.84 194.33 47.54 194.33 83.93 194.33 83.93 226.22 52.03 208.03 33.84"/><polygon class="cls-11" points="159.64 54.83 146.78 41.97 146.78 67.69 159.64 54.83"/><polygon class="cls-12" points="159.64 54.83 146.78 67.69 146.78 83.93 167.76 62.95 159.64 54.83"/><polygon class="cls-13" points="173.34 68.53 194.33 47.54 194.33 20.15 194.32 20.14 159.64 54.83 173.34 68.53"/><polygon class="cls-2" points="241.88 67.7 241.88 0.01 241.87 0 208.03 33.84 241.88 67.7"/></svg>