<svg id="Layer_17" data-name="Layer 17" xmlns="http://www.w3.org/2000/svg" viewBox="0 0 191.97 189.22"><title>ra-branding-logo</title><path d="M322.44,165.42a95.78,95.78,0,0,0-22-31.17,6.7,6.7,0,0,0-9.19,0,82.55,82.55,0,0,1-113.27,0,6.7,6.7,0,0,0-9.19,0A95.93,95.93,0,0,0,166.7,272a96.89,96.89,0,0,0,9.43,8.27h0l-8.9,41.4,54.95-22.35h0a95.94,95.94,0,0,0,108.39-95.18A95.21,95.21,0,0,0,322.44,165.42ZM293,262.51a82,82,0,0,1-58.4,24.19,84,84,0,0,1-13.78-1.14l-35.28,13.78,5.78-24.86a83.35,83.35,0,0,1-15.12-12,82.51,82.51,0,0,1-2.5-114.18,96,96,0,0,0,121.81,0A82.59,82.59,0,0,1,293,262.51Z" transform="translate(-138.59 -132.43)"/><path d="M279.22,191.85a24.4,24.4,0,0,0-17.05,6.88,11,11,0,0,0-1,.83l-26.6,25.07L208,199.56a9.89,9.89,0,0,0-1-.83,24.53,24.53,0,1,0,3.64,30.92l17.07,16.1a10.06,10.06,0,0,0,13.78,0l17.08-16.1a24.56,24.56,0,1,0,20.68-37.8Zm-89.29,35.72a11.17,11.17,0,1,1,11.16-11.17A11.17,11.17,0,0,1,189.93,227.57Zm89.29,0a11.17,11.17,0,1,1,11.16-11.17A11.16,11.16,0,0,1,279.22,227.57Z" transform="translate(-138.59 -132.43)" style="fill:#d43836"/></svg>